<svg height="23" viewBox="0 0 22 23" width="22" xmlns="http://www.w3.org/2000/svg"><g fill="#323232"><path d="M15.662.868H6.178A5.848 5.848 0 0 0 .337 6.71v9.484a5.848 5.848 0 0 0 5.84 5.841h9.485a5.848 5.848 0 0 0 5.842-5.84V6.71A5.848 5.848 0 0 0 15.662.868zm3.964 15.326a3.968 3.968 0 0 1-3.963 3.963H6.178a3.968 3.968 0 0 1-3.963-3.963V6.71a3.968 3.968 0 0 1 3.963-3.964h9.484a3.968 3.968 0 0 1 3.964 3.964v9.484z"/><path d="M10.92 5.998a5.46 5.46 0 0 0-5.454 5.454 5.46 5.46 0 0 0 5.454 5.454 5.46 5.46 0 0 0 5.455-5.454 5.46 5.46 0 0 0-5.455-5.454zm0 9.03a3.58 3.58 0 0 1-3.576-3.576 3.58 3.58 0 0 1 3.576-3.576 3.58 3.58 0 0 1 3.577 3.576 3.58 3.58 0 0 1-3.577 3.576zm5.683-10.623a1.383 1.383 0 0 0-1.377 1.378c0 .362.148.717.404.974.256.255.611.403.973.403.363 0 .718-.148.974-.403.257-.257.404-.613.404-.974 0-.364-.147-.72-.404-.975a1.383 1.383 0 0 0-.974-.403z"/></g></svg>