<svg height="16" viewBox="0 0 24 16" width="24" xmlns="http://www.w3.org/2000/svg"><path d="M9.282 7.908a3.87 3.87 0 0 0 1.496-3.056A3.88 3.88 0 0 0 6.902.976H.952a.772.772 0 0 0-.773.772V14.98c0 .426.346.772.772.772h5.95a4.29 4.29 0 0 0 4.285-4.284 4.283 4.283 0 0 0-1.904-3.561zM6.902 2.52c1.286 0 2.332 1.046 2.332 2.332S8.188 7.184 6.902 7.184H1.723V2.52zm0 11.689H1.723V8.728h5.179c1.511 0 2.74 1.23 2.74 2.74a2.743 2.743 0 0 1-2.74 2.74zm10.895-9.762c-3.117 0-5.653 2.536-5.653 5.653s2.536 5.653 5.653 5.653c1.51 0 2.93-.588 3.997-1.656a.772.772 0 1 0-1.091-1.092 4.083 4.083 0 0 1-2.906 1.204 4.115 4.115 0 0 1-4.035-3.337h8.916a.772.772 0 0 0 .772-.772 5.659 5.659 0 0 0-5.653-5.653zm0 1.544a4.115 4.115 0 0 1 4.035 3.337h-8.07a4.115 4.115 0 0 1 4.035-3.337zm-3.473-3.063h6.535a.772.772 0 1 0 0-1.544h-6.535a.772.772 0 1 0 0 1.544z" fill="#323232"/></svg>