<svg height="23" viewBox="0 0 22 23" width="22" xmlns="http://www.w3.org/2000/svg"><path d="M10.937.629C4.93.629.007 5.594.007 11.602c0 5.973 4.878 10.888 10.93 10.888 6.045 0 10.931-4.908 10.931-10.888 0-6.008-4.923-10.973-10.93-10.973zm1.922 20.388c-.615.128-1.268.192-1.922.192s-1.306-.064-1.921-.192V18.02c0-.718.192-.974.448-1.32.13-.149.21-.283.794-1.165l-.986-.154c-2.536-.372-3.535-1.691-3.932-2.716-.513-1.37-.244-3.087.679-4.176.14-.166.256-.448.153-.743-.192-.589-.166-1.524-.038-1.883.68.097 1.377.584 1.96.935.268.157.409.116.538.129.468-.098 1.198-.334 2.318-.334.692 0 1.422.103 2.14.308.128-.003.334.106.691-.103.609-.37 1.284-.84 1.96-.935.128.359.154 1.294-.038 1.883a.77.77 0 0 0 .153.743c.923 1.09 1.192 2.806.68 4.176-.398 1.025-1.397 2.344-3.933 2.716l-.987.154c.605.912.669 1.021.795 1.165.256.346.448.602.448 1.32zm1.28-.371V18.02c0-.73-.153-1.217-.358-1.576 1.947-.525 3.33-1.678 3.945-3.33.654-1.743.36-3.818-.73-5.252.193-.859.193-2.23-.269-2.87a1 1 0 0 0-.845-.435h-.013c-.993.053-1.775.554-2.613 1.063a8.848 8.848 0 0 0-4.624 0c-.882-.532-1.657-1.01-2.677-1.063-.32 0-.603.154-.807.435-.461.64-.461 2.011-.27 2.87-1.088 1.434-1.383 3.522-.73 5.251.615 1.653 1.999 2.806 3.946 3.33-.16.279-.285.638-.334 1.123-.394.136-.735.18-1.052.087-.335-.1-.595-.322-.822-.703-.508-.855-1.375-1.553-2.362-1.462l.113 1.276c.457-.042.912.441 1.148.84.39.656.914 1.086 1.56 1.277.48.141.918.138 1.39.037v1.728c-3.728-1.307-6.447-4.868-6.447-9.044 0-5.303 4.346-9.693 9.65-9.693 5.303 0 9.65 4.39 9.65 9.693 0 4.176-2.72 7.737-6.448 9.044z" fill="#323232"/></svg>