<svg height="18" viewBox="0 0 17 18" width="17" xmlns="http://www.w3.org/2000/svg"><path d="M1.3 4.505a.854.854 0 0 0-.854.854V16.9a.854.854 0 0 0 1.707 0V5.359a.854.854 0 0 0-.853-.854zm6.949 9.873v2.523a.854.854 0 0 1-1.707 0V5.359a.854.854 0 0 1 1.707 0v1.21a4.801 4.801 0 0 1 3.116-1.145 4.829 4.829 0 0 1 4.823 4.823v6.654a.854.854 0 1 1-1.707 0v-6.654a3.12 3.12 0 0 0-3.116-3.116 3.12 3.12 0 0 0-3.116 3.116zM1.3 2.135a.865.865 0 0 0 .604-.249.865.865 0 0 0 .25-.603.863.863 0 0 0-.25-.605.866.866 0 0 0-.604-.25.864.864 0 0 0-.604.25.86.86 0 0 0-.25.605.855.855 0 0 0 .854.853z" fill="#323232"/></svg>