<svg height="16" viewBox="0 0 24 16" width="24" xmlns="http://www.w3.org/2000/svg"><g fill="#323232" transform="translate(.179329 .948726)"><path d="m9.10247861 6.95901163c.90963029-.70996039 1.49608359-1.81545251 1.49608359-3.05597913 0-2.13729162-1.73877518-3.87606677-3.87596388-3.87606677h-5.95067849c-.42640851 0-.77191983.34561424-.77191983.77191983v13.23307304c0 .4263056.34551132.7719199.77191983.7719199h5.95067849c2.36248637 0 4.28446378-1.9218746 4.28446378-4.2840522 0-1.48260064-.756996-2.79136498-1.90458349-3.56081467zm-2.37988029-5.38820624c1.28591551 0 2.33212419 1.0463116 2.33212419 2.33222711s-1.04620868 2.33212418-2.33212419 2.33212418h-5.17875866v-4.66435129zm0 11.68923341h-5.17875866v-5.48104246h5.17875866c1.51121318 0 2.74062416 1.2295139 2.74062416 2.74072706 0 1.5110074-1.22941098 2.7403154-2.74062416 2.7403154z"/><path d="m17.6177835 3.49864943c-3.1168064 0-5.6526145 2.53570517-5.6526145 5.65261452s2.5358081 5.65261455 5.6526145 5.65261455c1.5098752 0 2.9293843-.5879971 3.9971038-1.6557166.3015634-.3014604.3015634-.7901371.000103-1.0915976-.3014605-.3014604-.7902401-.3014604-1.0917005 0-.7762426.7760368-1.8080421 1.2034745-2.9055063 1.2034745-2.0016395 0-3.6726916-1.4391673-4.0349793-3.33685503h8.915777c.4264085 0 .7719198-.34561423.7719198-.77191982 0-3.11690935-2.5358081-5.65261452-5.6527175-5.65261452zm0 1.54383966c2.0016396 0 3.6726917 1.4390644 4.0350823 3.33685503h-8.0700616c.3622877-1.89779063 2.0333398-3.33685503 4.0349793-3.33685503z"/><path d="m14.144556 1.97920244h6.5348674c.4264085 0 .7719199-.34561424.7719199-.77191983s-.3455114-.77191983-.7719199-.77191983h-6.5348674c-.4264085 0-.7719198.34561424-.7719198.77191983s.3455113.77191983.7719198.77191983z"/></g></svg>