<?xml version="1.0" encoding="UTF-8"?>
<svg width="24px" height="16px" viewBox="0 0 24 16" version="1.1" xmlns="http://www.w3.org/2000/svg" xmlns:xlink="http://www.w3.org/1999/xlink">
    <!-- Generator: Sketch 51.3 (57544) - http://www.bohemiancoding.com/sketch -->
    <title>behance@1x</title>
    <desc>Created with Sketch.</desc>
    <defs></defs>
    <g id="Page-1" stroke="none" stroke-width="1" fill="none" fill-rule="evenodd">
        <g id="About" transform="translate(-195.000000, -479.000000)" fill="#323232" fill-rule="nonzero">
            <g id="behance" transform="translate(195.179329, 479.948726)">
                <path d="M9.10247861,6.95901163 C10.0121089,6.24905124 10.5985622,5.14355912 10.5985622,3.9030325 C10.5985622,1.76574088 8.85978702,0.0269657327 6.72259832,0.0269657327 L0.771919828,0.0269657327 C0.345511315,0.0269657327 0,0.37257997 0,0.798885561 L0,14.0319586 C0,14.4582642 0.345511315,14.8038785 0.771919828,14.8038785 L6.72259832,14.8038785 C9.08508469,14.8038785 11.0070621,12.8820039 11.0070621,10.5198263 C11.0070621,9.03722566 10.2500661,7.72846132 9.10247861,6.95901163 Z M6.72259832,1.57080539 C8.00851383,1.57080539 9.05472251,2.61711699 9.05472251,3.9030325 C9.05472251,5.18894801 8.00851383,6.23515668 6.72259832,6.23515668 L1.54383966,6.23515668 L1.54383966,1.57080539 L6.72259832,1.57080539 Z M6.72259832,13.2600388 L1.54383966,13.2600388 L1.54383966,7.77899634 L6.72259832,7.77899634 C8.2338115,7.77899634 9.46322248,9.00851024 9.46322248,10.5197234 C9.46322248,12.0307308 8.2338115,13.2600388 6.72259832,13.2600388 Z" id="Shape"></path>
                <path d="M17.6177835,3.49864943 C14.5009771,3.49864943 11.965169,6.0343546 11.965169,9.15126395 C11.965169,12.2681733 14.5009771,14.8038785 17.6177835,14.8038785 C19.1276587,14.8038785 20.5471678,14.2158814 21.6148873,13.1481619 C21.9164507,12.8467015 21.9164507,12.3580248 21.6149903,12.0565643 C21.3135298,11.7551039 20.8247502,11.7551039 20.5232898,12.0565643 C19.7470472,12.8326011 18.7152477,13.2600388 17.6177835,13.2600388 C15.616144,13.2600388 13.9450919,11.8208715 13.5828042,9.92318377 L22.4985812,9.92318377 C22.9249897,9.92318377 23.270501,9.57756954 23.270501,9.15126395 C23.270501,6.0343546 20.7346929,3.49864943 17.6177835,3.49864943 Z M17.6177835,5.04248909 C19.6194231,5.04248909 21.2904752,6.48155349 21.6528658,8.37934412 L13.5828042,8.37934412 C13.9450919,6.48155349 15.616144,5.04248909 17.6177835,5.04248909 Z" id="Shape"></path>
                <path d="M14.144556,1.97920244 L20.6794234,1.97920244 C21.1058319,1.97920244 21.4513433,1.6335882 21.4513433,1.20728261 C21.4513433,0.780977021 21.1058319,0.435362783 20.6794234,0.435362783 L14.144556,0.435362783 C13.7181475,0.435362783 13.3726362,0.780977021 13.3726362,1.20728261 C13.3726362,1.6335882 13.7181475,1.97920244 14.144556,1.97920244 Z" id="Shape"></path>
            </g>
        </g>
    </g>
</svg>