<svg height="23" viewBox="0 0 22 23" width="22" xmlns="http://www.w3.org/2000/svg"><path d="m10.9307479 0c-6.00760817 0-10.9307479 4.96583796-10.9307479 10.9734461 0 5.9727491 4.87827324 10.8880497 10.9307479 10.8880497 6.0449691 0 10.9307479-4.9079618 10.9307479-10.8880497 0-6.00760814-4.9231397-10.9734461-10.9307479-10.9734461zm1.9214205 20.3884067c-.6147878.1280947-1.2681042.1921421-1.9214205.1921421s-1.30663265-.0640474-1.92142052-.1921421v-2.9973826c0-.7173637.19214205-.9735531.44833145-1.3194755.13042979-.1491103.20915466-.2828758.79408707-1.1655284l-.98622912-.1537803c-2.53637518-.3714413-3.53544712-1.6909168-3.93257405-2.7156744-.5123788-1.3705133-.24334658-3.08711573.67900197-4.17575392.14093752-.16662316.2561894-.44849824.15378038-.74304932-.19230884-.58926897-.1666232-1.5242936-.0385285-1.88305885.67916879.09707178 1.37751843.58359813 1.95994903.93519141.26836506.15661579.4091358.11525188.53789766.1280947.4680127-.09740535 1.19805241-.33307958 2.31854743-.33307958.6916781 0 1.4218846.10240903 2.1392483.30739394.1282615-.00300224.3344139.10607838.691678-.10240906.6087834-.37094091 1.2834489-.84078827 1.9597822-.93519141.1280947.35876525.1537804 1.29378988-.0383617 1.88305885-.1025758.29455108.0126761.57642616.1537804.74304932.9221818 1.08880496 1.191214 2.80524062.6788352 4.17575392-.3971269 1.0247576-1.3961989 2.3442331-3.9325741 2.7156744l-.9862291.1537803c.6046137.9123412.6683275 1.0217554.7942539 1.1655284.2560226.3459224.4481646.6021118.4481646 1.3194755zm1.2809471-.3714412v-2.6259414c0-.7302065-.1537804-1.2168997-.3587653-1.5756649 1.9471062-.5250549 3.330629-1.678074 3.9454169-3.3304623.6533163-1.7419545.3587653-3.81715539-.7302065-5.25188275.1923089-.85813446.1923089-2.22881447-.2688655-2.86928798-.2049848-.2817083-.4868599-.43548864-.8454583-.43548864-.0128429 0-.0128429 0-.0128429 0-.9932343.05370635-1.7749789.5539095-2.6130985 1.06311933-.7685682-.20498491-1.5499793-.30739394-2.3313903-.30739394-.7940871 0-1.58834097.11525189-2.29269505.30739394-.88231895-.53206004-1.65655805-1.0107473-2.6773127-1.06311933-.32023676 0-.6021118.15378034-.80709667.43548864-.46100754.64047351-.46100754 2.01115352-.26886548 2.86928798-1.08897175 1.43472736-1.38352283 3.52260435-.7302065 5.25188275.61478787 1.6523883 1.9983107 2.8054074 3.94541691 3.3304623-.15895084.2780388-.2847105.6368041-.33424712 1.1223297-.39329078.1356003-.73437627.1797996-1.05161083.086564-.33458067-.0989065-.59527342-.3222382-.82177418-.7031865-.50870945-.8546319-1.37518335-1.5523143-2.36174607-1.4615806l.11258324 1.2759433c.45683772-.0418643.91150721.4414931 1.14768182.8399543.38962139.6561518.91450941 1.08647 1.56048702 1.2772777.4795212.1412711.91784521.1379353 1.38986087.0371941v1.7271103c-3.72758918-1.3066327-6.44743334-4.8675987-6.44743334-9.0435194 0-5.30308728 4.34671357-9.69249908 9.64980088-9.69249908 5.3030873 0 9.6498009 4.3894118 9.6498009 9.69249908 0 4.1759207-2.7198442 7.7368867-6.4474333 9.0435194z" fill="#323232" transform="translate(.006707 .628539)"/></svg>