<svg height="23" viewBox="0 0 22 23" width="22" xmlns="http://www.w3.org/2000/svg"><g fill="#323232" transform="translate(.336637 .868144)"><path d="m15.3257834 0h-9.48449215c-3.22088604 0-5.84129125 2.62053041-5.84129125 5.84141646v9.48449214c0 3.2210112 2.62040521 5.8414164 5.84129125 5.8414164h9.48449215c3.2211364 0 5.8415416-2.6205304 5.8415416-5.8414164v-9.48449214c.0001252-3.22088605-2.6204052-5.84141646-5.8415416-5.84141646zm3.9635992 15.3259086c0 2.1854447-1.7780293 3.9633488-3.963474 3.9633488h-9.48461735c-2.18531953.0001252-3.96322359-1.7779041-3.96322359-3.9633488v-9.48449214c0-2.18531954 1.77790406-3.9633488 3.96322359-3.9633488h9.48449215c2.1854447 0 3.963474 1.77802926 3.963474 3.9633488v9.48449214z"/><path d="m10.5836625 5.12962881c-3.00753754 0-5.4542841 2.44674656-5.4542841 5.45428409 0 3.0074124 2.44674656 5.4540337 5.4542841 5.4540337 3.0075376 0 5.4542841-2.4466213 5.4542841-5.4540337 0-3.00753753-2.4467465-5.45428409-5.4542841-5.45428409zm0 9.03012499c-1.97184583 0-3.57621643-1.6041202-3.57621643-3.5759661 0-1.97197103 1.6042454-3.57621643 3.57621643-3.57621643 1.9719711 0 3.5762165 1.6042454 3.5762165 3.57621643 0 1.9718459-1.6043706 3.5759661-3.5762165 3.5759661z"/><path d="m16.2666953 3.53715264c-.3618411 0-.7172967.14648928-.9728391.40315852-.2567944.25541721-.4044106.61099802-.4044106.9740911 0 .36196624.1477414.71742185.4044106.97409109.2554172.25541721.610998.40315853.9728391.40315853.363093 0 .7174218-.14774132.9740911-.40315853.2566692-.25666924.4031585-.61225005.4031585-.97409109 0-.36309308-.1464893-.71867389-.4031585-.9740911-.2554172-.25666924-.6109981-.40315852-.9740911-.40315852z"/></g></svg>