<?xml version="1.0" encoding="UTF-8"?>
<svg width="22px" height="23px" viewBox="0 0 22 23" version="1.1" xmlns="http://www.w3.org/2000/svg" xmlns:xlink="http://www.w3.org/1999/xlink">
    <!-- Generator: Sketch 51.3 (57544) - http://www.bohemiancoding.com/sketch -->
    <title>instagram-logo@1x</title>
    <desc>Created with Sketch.</desc>
    <defs></defs>
    <g id="Page-1" stroke="none" stroke-width="1" fill="none" fill-rule="evenodd">
        <g id="About" transform="translate(-266.000000, -475.000000)" fill="#323232" fill-rule="nonzero">
            <g id="instagram-logo" transform="translate(266.336637, 475.868144)">
                <path d="M15.3257834,0 L5.84129125,0 C2.62040521,0 0,2.62053041 0,5.84141646 L0,15.3259086 C0,18.5469198 2.62040521,21.167325 5.84129125,21.167325 L15.3257834,21.167325 C18.5469198,21.167325 21.167325,18.5467946 21.167325,15.3259086 L21.167325,5.84141646 C21.1674502,2.62053041 18.5469198,0 15.3257834,0 Z M19.2893826,15.3259086 C19.2893826,17.5113533 17.5113533,19.2892574 15.3259086,19.2892574 L5.84129125,19.2892574 C3.65597172,19.2893826 1.87806766,17.5113533 1.87806766,15.3259086 L1.87806766,5.84141646 C1.87806766,3.65609692 3.65597172,1.87806766 5.84129125,1.87806766 L15.3257834,1.87806766 C17.5112281,1.87806766 19.2892574,3.65609692 19.2892574,5.84141646 L19.2892574,15.3259086 L19.2893826,15.3259086 Z" id="Shape"></path>
                <path d="M10.5836625,5.12962881 C7.57612496,5.12962881 5.1293784,7.57637537 5.1293784,10.5839129 C5.1293784,13.5913253 7.57612496,16.0379466 10.5836625,16.0379466 C13.5912001,16.0379466 16.0379466,13.5913253 16.0379466,10.5839129 C16.0379466,7.57637537 13.5912001,5.12962881 10.5836625,5.12962881 Z M10.5836625,14.1597538 C8.61181667,14.1597538 7.00744607,12.5556336 7.00744607,10.5837877 C7.00744607,8.61181667 8.61169147,7.00757127 10.5836625,7.00757127 C12.5556336,7.00757127 14.159879,8.61181667 14.159879,10.5837877 C14.159879,12.5556336 12.5555084,14.1597538 10.5836625,14.1597538 Z" id="Shape"></path>
                <path d="M16.2666953,3.53715264 C15.9048542,3.53715264 15.5493986,3.68364192 15.2938562,3.94031116 C15.0370618,4.19572837 14.8894456,4.55130918 14.8894456,4.91440226 C14.8894456,5.2763685 15.037187,5.63182411 15.2938562,5.88849335 C15.5492734,6.14391056 15.9048542,6.29165188 16.2666953,6.29165188 C16.6297883,6.29165188 16.9841171,6.14391056 17.2407864,5.88849335 C17.4974556,5.63182411 17.6439449,5.2762433 17.6439449,4.91440226 C17.6439449,4.55130918 17.4974556,4.19572837 17.2407864,3.94031116 C16.9853692,3.68364192 16.6297883,3.53715264 16.2666953,3.53715264 Z" id="Shape"></path>
            </g>
        </g>
    </g>
</svg>