<svg height="18" viewBox="0 0 17 18" width="17" xmlns="http://www.w3.org/2000/svg"><g fill="#323232" transform="translate(.336637 .427892)"><path d="m.96310809 4.07701718c-.47148017 0-.85371832.38223814-.85371832.85371831v11.54215781c0 .4714801.38223815.8537183.85371832.8537183.47148016 0 .85371831-.3822382.85371831-.8537183v-11.54215781c0-.471594-.38223815-.85371831-.85371831-.85371831z"/><path d="m7.91237515 13.9502126v2.5226807c0 .4714801-.38223814.8537183-.85371831.8537183s-.85371831-.3822382-.85371831-.8537183v-2.5226807-4.13199668-4.88748043c0-.47148017.38223814-.85371831.85371831-.85371831s.85371831.38223814.85371831.85371831v1.21091405c.84131095-.71382233 1.92883425-1.14568997 3.11595805-1.14568997 2.6596171 0 4.823167 2.16366369 4.823167 4.82328081v6.65365292c0 .4714801-.3821244.8537183-.8537184.8537183-.4714801 0-.8537183-.3822382-.8537183-.8537183v-6.65365292c0-1.71813656-1.3977076-3.11584419-3.1157303-3.11584419-1.71813659 0-3.11595805 1.39770763-3.11595805 3.11584419z"/><path d="m.96288043 1.70743663c.22424334 0 .44507181-.09106329.60443256-.24928575.15822246-.15936075.24928575-.37905093.24928575-.60329428 0-.22538163-.09106329-.44507181-.24928575-.60443256-.15936075-.15822246-.38018922-.25042404-.60443256-.25042404-.22424335 0-.44393353.09220158-.60329428.25042404-.15936075.15936075-.25042403.37905093-.25042403.60443256 0 .22424335.09106328.44393353.25042403.60329428.15936075.15822246.37905093.24928575.60329428.24928575z"/></g></svg>