<?xml version="1.0" encoding="UTF-8"?>
<svg width="66px" height="66px" viewBox="0 0 66 66" version="1.1" xmlns="http://www.w3.org/2000/svg" xmlns:xlink="http://www.w3.org/1999/xlink">
    <!-- Generator: Sketch 45.1 (43504) - http://www.bohemiancoding.com/sketch -->
    <title>icon-instagram</title>
    <desc>Created with Sketch.</desc>
    <defs>
        <radialGradient cx="26.5626266%" cy="107.702106%" fx="26.5626266%" fy="107.702106%" r="49.9906001%" gradientTransform="translate(0.265626,1.077021),scale(0.999727,1.000000),translate(-0.265626,-1.077021)" id="radialGradient-1">
            <stop stop-color="#FFDD55" offset="0%"></stop>
            <stop stop-color="#FFDD55" offset="10%"></stop>
            <stop stop-color="#FF543E" offset="50%"></stop>
            <stop stop-color="#C837AB" offset="100%"></stop>
        </radialGradient>
        <radialGradient cx="-16.7505274%" cy="7.20383154%" fx="-16.7505274%" fy="7.20383154%" r="49.9906001%" gradientTransform="translate(-0.167505,0.072038),scale(0.999727,1.000000),translate(0.167505,-0.072038)" id="radialGradient-2">
            <stop stop-color="#3771C8" offset="0%"></stop>
            <stop stop-color="#3771C8" offset="12.8%"></stop>
            <stop stop-color="#6600FF" stop-opacity="0" offset="100%"></stop>
        </radialGradient>
    </defs>
    <g id="Design" stroke="none" stroke-width="1" fill="none" fill-rule="evenodd">
        <g id="Home" transform="translate(-819.000000, -1163.000000)" fill-rule="nonzero">
            <g id="Social" transform="translate(330.000000, 1021.626049)">
                <g id="Instagram" transform="translate(460.000000, 102.000000)">
                    <g id="icon-instagram" transform="translate(29.604212, 40.312084)">
                        <path d="M32.2687786,0 C18.801374,0 14.8626718,0.0138931298 14.0970611,0.0774045802 C11.3333206,0.307137405 9.61354962,0.742290076 7.73996183,1.6751145 C6.2960687,2.39209924 5.15732824,3.22320611 4.03347328,4.38824427 C1.98671756,6.51290076 0.746259542,9.12679389 0.29721374,12.2338931 C0.0788931298,13.7422901 0.0153816794,14.0499237 0.00248091603,21.7546565 C-0.00248091603,24.3229008 0.00248091603,27.7029008 0.00248091603,32.2365267 C0.00248091603,45.6930153 0.0173664122,49.6277481 0.081870229,50.3918702 C0.305152672,53.0811832 0.726908397,54.7731679 1.62003817,56.6239313 C3.3269084,60.1666794 6.58683206,62.8262214 10.4272901,63.8185878 C11.7570611,64.1609542 13.2257634,64.3495038 15.1112595,64.4388168 C15.9101145,64.4735496 24.0524809,64.4983588 32.1998092,64.4983588 C40.3471374,64.4983588 48.4944656,64.4884351 49.2734733,64.4487405 C51.4566794,64.3460305 52.7244275,64.1758397 54.126145,63.813626 C57.9914122,62.8162977 61.1917939,60.1964504 62.9333969,56.604084 C63.8091603,54.7979771 64.2532443,53.0414885 64.4541985,50.4925954 C64.4978626,49.9368702 64.5162214,41.0765267 64.5162214,32.2280916 C64.5162214,23.3781679 64.496374,14.5341985 64.4527099,13.9784733 C64.2492748,11.3883969 63.8051908,9.64679389 62.901145,7.8059542 C62.1593511,6.2990458 61.335687,5.17370229 60.1398855,4.02305344 C58.0058015,1.98473282 55.3958779,0.744274809 52.2858015,0.295725191 C50.7788931,0.0779007634 50.4787023,0.0133969466 42.7680153,0 L32.2687786,0 Z" id="Shape" fill="url(#radialGradient-1)"></path>
                        <path d="M32.2687786,0 C18.801374,0 14.8626718,0.0138931298 14.0970611,0.0774045802 C11.3333206,0.307137405 9.61354962,0.742290076 7.73996183,1.6751145 C6.2960687,2.39209924 5.15732824,3.22320611 4.03347328,4.38824427 C1.98671756,6.51290076 0.746259542,9.12679389 0.29721374,12.2338931 C0.0788931298,13.7422901 0.0153816794,14.0499237 0.00248091603,21.7546565 C-0.00248091603,24.3229008 0.00248091603,27.7029008 0.00248091603,32.2365267 C0.00248091603,45.6930153 0.0173664122,49.6277481 0.081870229,50.3918702 C0.305152672,53.0811832 0.726908397,54.7731679 1.62003817,56.6239313 C3.3269084,60.1666794 6.58683206,62.8262214 10.4272901,63.8185878 C11.7570611,64.1609542 13.2257634,64.3495038 15.1112595,64.4388168 C15.9101145,64.4735496 24.0524809,64.4983588 32.1998092,64.4983588 C40.3471374,64.4983588 48.4944656,64.4884351 49.2734733,64.4487405 C51.4566794,64.3460305 52.7244275,64.1758397 54.126145,63.813626 C57.9914122,62.8162977 61.1917939,60.1964504 62.9333969,56.604084 C63.8091603,54.7979771 64.2532443,53.0414885 64.4541985,50.4925954 C64.4978626,49.9368702 64.5162214,41.0765267 64.5162214,32.2280916 C64.5162214,23.3781679 64.496374,14.5341985 64.4527099,13.9784733 C64.2492748,11.3883969 63.8051908,9.64679389 62.901145,7.8059542 C62.1593511,6.2990458 61.335687,5.17370229 60.1398855,4.02305344 C58.0058015,1.98473282 55.3958779,0.744274809 52.2858015,0.295725191 C50.7788931,0.0779007634 50.4787023,0.0133969466 42.7680153,0 L32.2687786,0 Z" id="Shape" fill="url(#radialGradient-2)"></path>
                        <path d="M32.2538931,8.4351145 C25.7856489,8.4351145 24.9738931,8.46339695 22.4334351,8.57900763 C19.8979389,8.6951145 18.1672519,9.09652672 16.6529008,9.68549618 C15.0864504,10.2938168 13.7576718,11.1075573 12.433855,12.4318702 C11.1090458,13.755687 10.2953053,15.0844656 9.685,16.6504198 C9.09454198,18.1652672 8.69263359,19.8964504 8.57851145,22.4309542 C8.4648855,24.9714122 8.4351145,25.7836641 8.4351145,32.2519084 C8.4351145,38.7201527 8.46389313,39.5294275 8.57900763,42.0698855 C8.69561069,44.6053817 9.0970229,46.3360687 9.68549618,47.8504198 C10.294313,49.4168702 11.1080534,50.7456489 12.4323664,52.0694656 C13.755687,53.3942748 15.0844656,54.21 16.6499237,54.8183206 C18.1652672,55.4072901 19.8964504,55.8087023 22.4314504,55.9248092 C24.9719084,56.0404198 25.7831679,56.0687023 32.250916,56.0687023 C38.7196565,56.0687023 39.5289313,56.0404198 42.0693893,55.9248092 C44.6048855,55.8087023 46.3375573,55.4072901 47.8529008,54.8183206 C49.418855,54.21 50.7456489,53.3942748 52.0689695,52.0694656 C53.3937786,50.7456489 54.2075191,49.4168702 54.8178244,47.850916 C55.4033206,46.3360687 55.805229,44.6048855 55.924313,42.0703817 C56.0384351,39.5299237 56.0682061,38.7201527 56.0682061,32.2519084 C56.0682061,25.7836641 56.0384351,24.9719084 55.924313,22.4314504 C55.805229,19.8959542 55.4033206,18.1652672 54.8178244,16.650916 C54.2075191,15.0844656 53.3937786,13.755687 52.0689695,12.4318702 C50.7441603,11.1070611 49.4193511,10.2933206 47.8514122,9.68549618 C46.3330916,9.09652672 44.6014122,8.6951145 42.065916,8.57900763 C39.525458,8.46339695 38.7166794,8.4351145 32.2464504,8.4351145 L32.2538931,8.4351145 Z M30.1173282,12.7270992 C30.7514504,12.7261069 31.4590076,12.7270992 32.2538931,12.7270992 C38.6129771,12.7270992 39.3666794,12.7499237 41.8778626,12.8640458 C44.2,12.970229 45.4603053,13.3582443 46.2998473,13.6842366 C47.4112977,14.115916 48.2037023,14.6319466 49.0367939,15.4655344 C49.8703817,16.2991221 50.3864122,17.0930153 50.819084,18.2044656 C51.1450763,19.0430153 51.5335878,20.3033206 51.6392748,22.625458 C51.7533969,25.136145 51.7782061,25.8903435 51.7782061,32.2464504 C51.7782061,38.6025573 51.7533969,39.3567557 51.6392748,41.8674427 C51.5330916,44.1895802 51.1450763,45.4498855 50.819084,46.2884351 C50.3874046,47.3998855 49.8703817,48.1912977 49.0367939,49.0243893 C48.2032061,49.8579771 47.4117939,50.3740076 46.2998473,50.805687 C45.4612977,51.1331679 44.2,51.5201908 41.8778626,51.626374 C39.3671756,51.7404962 38.6129771,51.7653053 32.2538931,51.7653053 C25.894313,51.7653053 25.1406107,51.7404962 22.6299237,51.626374 C20.3077863,51.5191985 19.0474809,51.1311832 18.2074427,50.8051908 C17.0959924,50.3735115 16.3020992,49.8574809 15.4685115,49.0238931 C14.6349237,48.1903053 14.1188931,47.3983969 13.6862214,46.2864504 C13.360229,45.4479008 12.9717176,44.1875954 12.8660305,41.865458 C12.7519084,39.354771 12.729084,38.6005725 12.729084,32.2404962 C12.729084,25.8804198 12.7519084,25.1301908 12.8660305,22.6195038 C12.9722137,20.2973664 13.360229,19.0370611 13.6862214,18.1975191 C14.1179008,17.0860687 14.6349237,16.2921756 15.4685115,15.4585878 C16.3020992,14.625 17.0959924,14.1089695 18.2074427,13.6762977 C19.0469847,13.3488168 20.3077863,12.9617939 22.6299237,12.8551145 C24.8270229,12.7558779 25.6784733,12.7261069 30.1173282,12.721145 L30.1173282,12.7270992 Z M44.9670992,16.6816794 C43.3892366,16.6816794 42.109084,17.9603435 42.109084,19.5387023 C42.109084,21.1165649 43.3892366,22.3967176 44.9670992,22.3967176 C46.5449618,22.3967176 47.8251145,21.1165649 47.8251145,19.5387023 C47.8251145,17.9608397 46.5449618,16.680687 44.9670992,16.680687 L44.9670992,16.6816794 Z M32.2538931,20.0209924 C25.4993511,20.0209924 20.0229771,25.4973664 20.0229771,32.2519084 C20.0229771,39.0064504 25.4993511,44.4803435 32.2538931,44.4803435 C39.0084351,44.4803435 44.4828244,39.0064504 44.4828244,32.2519084 C44.4828244,25.4973664 39.0079389,20.0209924 32.2533969,20.0209924 L32.2538931,20.0209924 Z M32.2538931,24.3129771 C36.6381679,24.3129771 40.1928244,27.8671374 40.1928244,32.2519084 C40.1928244,36.6361832 36.6381679,40.1908397 32.2538931,40.1908397 C27.8691221,40.1908397 24.3149618,36.6361832 24.3149618,32.2519084 C24.3149618,27.8671374 27.8691221,24.3129771 32.2538931,24.3129771 Z" id="Shape" fill="#FFFFFF"></path>
                    </g>
                </g>
            </g>
        </g>
    </g>
</svg>