<?xml version="1.0" encoding="UTF-8"?>
<svg width="80px" height="34px" viewBox="0 0 80 34" version="1.1" xmlns="http://www.w3.org/2000/svg" xmlns:xlink="http://www.w3.org/1999/xlink">
    <!-- Generator: Sketch 45.1 (43504) - http://www.bohemiancoding.com/sketch -->
    <title>icon-youtube</title>
    <desc>Created with Sketch.</desc>
    <defs></defs>
    <g id="Design" stroke="none" stroke-width="1" fill="none" fill-rule="evenodd">
        <g id="Home" transform="translate(-819.000000, -823.000000)" fill-rule="nonzero">
            <g id="Work" transform="translate(330.000000, 448.000000)">
                <g id="Youtube" transform="translate(460.000000, 317.533642)">
                    <g id="icon-youtube" transform="translate(28.770660, 57.662844)">
                        <g id="Group" transform="translate(32.189344, 0.108427)" fill="#CD201F">
                            <path d="M46.6730363,7.10914112 C46.6730363,7.10914112 46.2134446,3.88047003 44.8020559,2.45849966 C43.0126491,0.592810104 41.0060813,0.583333986 40.0861082,0.473805864 C33.5002067,-1.77635684e-15 23.6213545,-1.77635684e-15 23.6213545,-1.77635684e-15 L23.6008237,-1.77635684e-15 C23.6008237,-1.77635684e-15 13.7211817,-1.77635684e-15 7.1352802,0.473805864 C6.21507025,0.583310296 4.20984486,0.592786413 2.4193325,2.45849966 C1.0084176,3.88047003 0.549378689,7.10914112 0.549378689,7.10914112 C0.549378689,7.10914112 0.0782103443,10.9000618 0.0782103443,14.6915353 L0.0782103443,18.2461059 C0.0782103443,22.0375794 0.549378689,25.8290529 0.549378689,25.8290529 C0.549378689,25.8290529 1.00844129,29.0572502 2.4193325,30.4796943 C4.20976589,32.3459367 6.56197511,32.286474 7.60908607,32.481761 C11.3742633,32.8418535 23.6102998,32.9529294 23.6102998,32.9529294 C23.6102998,32.9529294 33.5002075,32.9381885 40.086109,32.4643881 C41.0058452,32.3548837 43.0120971,32.3459367 44.801504,30.4796943 C46.2128927,29.0572502 46.6724843,25.8290529 46.6724843,25.8290529 C46.6724843,25.8290529 47.1431315,22.0375794 47.1431315,18.2461059 L47.1431315,14.6915353 C47.1431315,10.9000618 46.6724843,7.10914112 46.6724843,7.10914112" id="Shape"></path>
                        </g>
                        <g id="Group" transform="translate(0.049513, 5.044763)" fill="#000000">
                            <g transform="translate(25.745001, 13.500726) scale(-1, 1) rotate(-180.000000) translate(-25.745001, -13.500726) translate(21.366623, 4.743969)" id="Shape">
                                <path d="M8.42313113,0.526445696 L5.42870801,0.526445696 L5.42870801,2.26003137 C4.29316465,0.958657612 3.33082192,0.301653384 2.28161565,0.301653384 C1.36138857,0.301653384 0.721757049,0.735444637 0.402204512,1.52037517 C0.20794605,1.99733497 0.0700172775,2.74225563 0.0700172775,3.83620978 L0.0700172775,16.4451106 L3.06391395,16.4451106 L3.06391395,4.62429899 L3.06391395,3.52086881 C3.13393123,3.07918087 3.32239879,2.9170356 3.70249258,2.9170356 C4.27579194,2.9170356 4.79434095,3.41505323 5.42870801,4.30948447 L5.42870801,16.4451106 L8.42313113,16.4451106 L8.42313113,0.526445696 Z"></path>
                            </g>
                            <g transform="translate(15.369731, 13.510155) scale(-1, 1) rotate(-180.000000) translate(-15.369731, -13.510155) translate(10.444055, 4.753398)" id="Shape">
                                <path d="M5.79090265,5.26445696 C5.94830992,3.68827854 5.45924186,2.90650669 4.52953877,2.90650669 C3.59983567,2.90650669 3.11129406,3.68827854 3.26922777,5.26445696 L3.26922777,11.5691706 C3.11129406,13.145349 3.59983567,13.8839523 4.52953877,13.8839523 C5.45976831,13.8839523 5.94988925,13.145349 5.79248199,11.5691706 L5.79090265,5.26445696 Z M8.78532577,11.2538296 C8.78532577,12.9547757 8.44366251,14.2324594 7.8398293,15.036342 C7.04173763,16.1255581 5.79090265,16.5714576 4.52953877,16.5714576 C3.10287093,16.5714576 2.01628701,16.1255581 1.21977468,15.036342 C0.605938996,14.2324594 0.276910436,12.9410881 0.276910436,11.240142 L0.274278207,5.57979793 C0.274278207,3.88832791 0.566982014,2.71961846 1.18029125,1.92310613 C1.97733003,0.837575102 3.26922777,0.262696402 4.52953877,0.262696402 C5.79090265,0.262696402 7.10491111,0.837575102 7.90300278,1.92310613 C8.506836,2.71961846 8.78532577,3.88832791 8.78532577,5.57979793 L8.78532577,11.2538296 Z"></path>
                            </g>
                            <g transform="translate(6.058775, 11.065600) scale(-1, 1) rotate(-180.000000) translate(-6.058775, -11.065600) translate(0.038505, 0.119654)" id="Shape">
                                <path d="M7.37023974,8.94957683 L7.37023974,0.280595556 L4.21788291,0.280595556 L4.21788291,8.94957683 C4.21788291,8.94957683 0.951287372,19.5769361 0.277436882,21.5579512 L3.58720097,21.5579512 L5.79932578,13.2559026 L8.00039524,21.5579512 L11.3101593,21.5579512 L7.37023974,8.94957683 Z"></path>
                            </g>
                        </g>
                        <g id="Group" transform="translate(35.742888, 3.807861)" fill="#FFFFFF">
                            <g transform="translate(35.738882, 14.807531) scale(-1, 1) rotate(-180.000000) translate(-35.738882, -14.807531) translate(30.813206, 6.050774)" id="Shape">
                                <path d="M3.15867417,12.108251 C3.15867417,13.5817725 3.56245802,13.9834506 4.51532473,13.9834506 C5.46134765,13.9834506 5.83775632,13.5449213 5.83775632,12.0887725 L5.83775632,10.368348 L3.15867417,10.3651893 L3.15867417,12.108251 Z M8.83797034,8.00408036 L8.83744389,11.225928 C8.83744389,12.9089749 8.50578311,14.1408578 7.90879369,14.9373702 C7.10964912,16.0150045 5.97357931,16.5856716 4.54217346,16.5856716 C3.08497178,16.5856716 1.94890197,16.0150045 1.12396156,14.9373702 C0.517496119,14.1408578 0.164251057,12.8400105 0.164251057,11.1559107 L0.164251057,5.63981274 C0.164251057,3.96624187 0.55276798,2.7949002 1.15870698,2.00681099 C1.98417383,0.93075599 3.12024364,0.393254935 4.61271719,0.393254935 C6.1036114,0.393254935 7.27442662,0.956551829 8.06356872,2.10051833 C8.41102288,2.60537975 8.6347623,3.17762622 8.73110186,3.8098875 C8.7568977,4.09574751 8.83217944,4.74696084 8.83217944,5.66613502 L8.83217944,6.11256097 L5.83775632,6.11256097 C5.83775632,4.96806803 5.84354722,4.28737375 5.81669849,4.13207227 C5.65350033,3.36872601 5.24445202,2.98705288 4.54217346,2.98705288 C3.56245802,2.98705288 3.14814526,3.71933884 3.15867417,5.17338185 L3.15867417,8.00408036 L8.83797034,8.00408036 L8.83797034,8.00408036 Z"></path>
                            </g>
                            <g transform="translate(25.225683, 12.715804) scale(-1, 1) rotate(-180.000000) translate(-25.225683, -12.715804) translate(20.300007, 1.769858)" id="Shape">
                                <path d="M5.79090265,5.26445696 C5.79090265,3.68827854 5.41923199,3.08391889 4.59639737,3.08391889 C4.12680781,3.08391889 3.58562163,3.32555746 3.10813539,3.80304371 L3.11129406,13.3617182 C3.58825386,13.8323607 4.12680781,14.0803166 4.59639737,14.0803166 C5.41923199,14.0803166 5.79090265,13.6175708 5.79090265,12.0413924 L5.79090265,5.26445696 Z M6.12308989,16.7072806 C5.07335717,16.7072806 4.0299418,16.0618582 3.10813539,14.9273677 L3.11129406,21.8138038 L0.274278207,21.8138038 L0.274278207,0.693328981 L3.11129406,0.693328981 L3.11550563,2.28056275 C4.06889878,1.10079795 5.10862903,0.490647388 6.12308989,0.490647388 C7.2591597,0.490647388 8.08936456,1.09869217 8.47051124,2.27003384 C8.66055814,2.93756698 8.78532577,3.96518898 8.78532577,5.42186422 L8.78532577,11.7260514 C8.78532577,13.2179985 8.59422598,14.2382503 8.40365264,14.8715645 C8.0230324,16.0508028 7.2591597,16.7072806 6.12308989,16.7072806 L6.12308989,16.7072806 Z"></path>
                            </g>
                            <g transform="translate(14.165976, 15.284926) scale(-1, 1) rotate(-180.000000) translate(-14.165976, -15.284926) translate(9.787597, 7.075467)" id="Shape">
                                <path d="M8.42313113,0.526445696 L5.42923446,0.526445696 L5.42923446,2.26003137 C4.29316465,0.958657612 3.33134836,0.301653384 2.28214209,0.301653384 C1.36191501,0.301653384 0.722283495,0.735444637 0.402730957,1.52037517 C0.20794605,1.99733497 0.0700172775,2.74225563 0.0700172775,3.83620978 L0.0700172775,16.2871769 L3.06444039,16.2871769 L3.06444039,4.62429899 L3.06444039,3.52086881 C3.13445767,3.07918087 3.32239879,2.9170356 3.70301902,2.9170356 C4.27631839,2.9170356 4.7948674,3.41505323 5.42923446,4.30948447 L5.42923446,16.2871769 L8.42313113,16.2871769 L8.42313113,0.526445696 Z"></path>
                            </g>
                            <g transform="translate(5.518494, 11.967940) scale(-1, 1) rotate(-180.000000) translate(-5.518494, -11.967940) translate(0.018494, 0.967940)" id="Shape">
                                <polygon points="6.84379404 -1.99438994e-14 3.69196366 -1.99438994e-14 3.69196366 18.1255253 0.382199575 18.1255253 0.382199575 21.1162633 10.3114918 21.1199484 10.3114918 18.1255253 6.84379404 18.1255253"></polygon>
                            </g>
                        </g>
                    </g>
                </g>
            </g>
        </g>
    </g>
</svg>