<?xml version="1.0" encoding="UTF-8"?>
<svg width="41px" height="39px" viewBox="0 0 41 39" version="1.1" xmlns="http://www.w3.org/2000/svg" xmlns:xlink="http://www.w3.org/1999/xlink">
    <!-- Generator: Sketch 45.1 (43504) - http://www.bohemiancoding.com/sketch -->
    <title>icon-linkedin</title>
    <desc>Created with Sketch.</desc>
    <defs></defs>
    <g id="Design" stroke="none" stroke-width="1" fill="none" fill-rule="evenodd">
        <g id="Home" transform="translate(-831.000000, -600.000000)" fill-rule="nonzero" fill="#0084BF">
            <g id="Work" transform="translate(330.000000, 448.000000)">
                <g id="LinkedIn" transform="translate(460.000000, 102.000000)">
                    <g id="linkedin" transform="translate(40.770660, 50.329959)">
                        <path d="M40.7539624,23.8784624 L40.7539624,38.6667177 L32.1806672,38.6667177 L32.1806672,24.8688906 C32.1806672,21.402764 30.9406325,19.0372681 27.8373839,19.0372681 C25.4684471,19.0372681 24.0586911,20.631439 23.4384878,22.173531 C23.2123168,22.7248228 23.1541,23.4921489 23.1541,24.263846 L23.1541,38.6667177 L14.5779219,38.6667177 C14.5779219,38.6667177 14.6934254,15.2977274 14.5779219,12.8765258 L23.1532631,12.8765258 L23.1532631,16.5321822 C23.1358724,16.5595236 23.1132739,16.589004 23.0969063,16.6155084 L23.1532631,16.6155084 L23.1532631,16.5321822 C24.292581,14.7774039 26.3272832,12.2706441 30.8815788,12.2706441 C36.5240436,12.2705511 40.7539624,15.9567109 40.7539624,23.8784624 Z M5.60687452,0.444373575 C2.67297514,0.444373575 0.753962403,2.36878019 0.753962403,4.89944045 C0.753962403,7.37495293 2.61745536,9.35776226 5.49304503,9.35776226 L5.55033176,9.35776226 C8.54105289,9.35776226 10.4010119,7.37532492 10.4010119,4.89944045 C10.3446552,2.36878019 8.54105289,0.444373575 5.60687452,0.444373575 Z M1.26331218,38.6667177 L9.83623537,38.6667177 L9.83623537,12.8765258 L1.26331218,12.8765258 L1.26331218,38.6667177 Z" id="icon-linkedin"></path>
                    </g>
                </g>
            </g>
        </g>
    </g>
</svg>