<?xml version="1.0" encoding="UTF-8"?>
<svg width="66px" height="64px" viewBox="0 0 66 64" version="1.1" xmlns="http://www.w3.org/2000/svg" xmlns:xlink="http://www.w3.org/1999/xlink">
    <!-- Generator: Sketch 45.1 (43504) - http://www.bohemiancoding.com/sketch -->
    <title>icon-github</title>
    <desc>Created with Sketch.</desc>
    <defs></defs>
    <g id="Design" stroke="none" stroke-width="1" fill="none" fill-rule="evenodd">
        <g id="Home" transform="translate(-363.000000, -805.000000)" fill="#161514">
            <g id="Work" transform="translate(330.000000, 448.000000)">
                <g id="Github" transform="translate(0.000000, 317.533642)">
                    <path d="M66.3167207,40.1055756 C48.3723394,40.1055756 33.8197135,54.6562064 33.8197135,72.6065732 C33.8197135,86.9656696 43.1310797,99.1460618 56.0456873,103.443615 C57.6717347,103.742888 58.2642943,102.739327 58.2642943,101.877423 C58.2642943,101.107295 58.2363622,99.0622655 58.220401,96.3508563 C49.1803752,98.3140842 47.2730116,91.9934482 47.2730116,91.9934482 C45.7946053,88.2385754 43.6637848,87.2390051 43.6637848,87.2390051 C40.7129576,85.2239034 43.8872416,85.2638064 43.8872416,85.2638064 C47.1493123,85.4932487 48.8651415,88.6136637 48.8651415,88.6136637 C51.7640948,93.5795926 56.4726494,92.1450796 58.3241488,91.3131019 C58.6194311,89.2142039 59.4593893,87.781686 60.3871342,86.9696599 C53.1706757,86.1496531 45.5831193,83.360433 45.5831193,70.9067052 C45.5831193,67.359328 46.8500398,64.4563844 48.9289863,62.1859034 C48.5938011,61.3639015 47.4785121,58.0579376 49.2482104,53.5848107 C49.2482104,53.5848107 51.9755807,52.7109349 58.1844883,56.9167116 C60.7761885,56.1944672 63.5574279,55.8353402 66.320711,55.8213741 C69.081999,55.8353402 71.8612433,56.1944672 74.4569338,56.9167116 C80.661851,52.7109349 83.3852311,53.5848107 83.3852311,53.5848107 C85.1589197,58.0579376 84.0436307,61.3639015 83.7104406,62.1859034 C85.7933775,64.4563844 87.0503221,67.359328 87.0503221,70.9067052 C87.0503221,83.3923555 79.4507948,86.1396773 72.2123897,86.9437229 C73.3775575,87.9472835 74.4170308,89.9304628 74.4170308,92.9630912 C74.4170308,97.3065333 74.3771278,100.812012 74.3771278,101.877423 C74.3771278,102.747308 74.9637019,103.758849 76.611696,103.44162 C89.5163279,99.1340909 98.8197135,86.9616793 98.8197135,72.6065732 C98.8197135,54.6562064 84.2670875,40.1055756 66.3167207,40.1055756" id="icon-github"></path>
                </g>
            </g>
        </g>
    </g>
</svg>