<?xml version="1.0" encoding="UTF-8"?>
<svg width="65px" height="65px" viewBox="0 0 65 65" version="1.1" xmlns="http://www.w3.org/2000/svg" xmlns:xlink="http://www.w3.org/1999/xlink">
    <!-- Generator: Sketch 45.1 (43504) - http://www.bohemiancoding.com/sketch -->
    <title>icon-snapchat</title>
    <desc>Created with Sketch.</desc>
    <defs></defs>
    <g id="Design" stroke="none" stroke-width="1" fill="none" fill-rule="evenodd">
        <g id="Home" transform="translate(-366.000000, -1381.000000)">
            <g id="Social" transform="translate(330.000000, 1021.626049)">
                <g id="Snapchat" transform="translate(0.000000, 317.533642)">
                    <g id="icon-snapchat" transform="translate(36.062136, 41.963550)">
                        <path d="M0.0692084003,48.0605409 L0.0692084003,48.0634193 C0.107754851,49.4931422 0.119644178,50.9311251 0.360809798,52.3520874 C0.61636776,53.855399 0.981682987,55.3212905 1.67864787,56.6856847 C2.62090835,58.5324101 3.91496777,60.0919144 5.5484362,61.3658245 C6.72122448,62.2805518 8.00239337,63.0066769 9.4206024,63.4647288 C11.4885945,64.1317827 13.6220404,64.3874658 15.7866489,64.3999809 C17.1371513,64.4084911 18.4867777,64.4422818 19.8377807,64.4366501 C29.6489788,64.3953503 39.4604272,64.5074854 49.2718756,64.3760771 C50.5738195,64.3584308 51.8544878,64.1996144 53.1322776,63.9659578 C55.5813539,63.5176676 57.7458372,62.4726583 59.5976938,60.8205424 C61.7559196,58.8955978 63.2120493,56.5397588 63.8693414,53.6964575 C64.2994848,51.8379679 64.4071145,49.9524457 64.4255116,48.0602906 L64.4255116,47.6828357 C64.4255116,47.5364092 64.3698195,15.5325927 64.3646883,15.109583 C64.350296,13.9475576 64.2646928,12.7942929 64.0468053,11.6509151 C63.781861,10.257611 63.4075349,8.89997501 62.7403559,7.63945601 C62.035882,6.30772619 61.1534436,5.1102832 60.0620033,4.06389724 C58.3901136,2.46071531 56.4607887,1.32697408 54.214707,0.727251382 C52.1860123,0.185723808 50.1163933,0.0658293283 48.031631,0.0677065905 C48.0282519,0.0672059873 48.0203674,0.0460554997 48.0198668,0.0357931329 L16.4648411,0.0357931329 C16.4642154,0.0465561029 16.4638399,0.0573190729 16.463089,0.0677065905 C15.2799132,0.0893576814 14.0949853,0.0804719736 12.9178167,0.226397823 C11.6282628,0.386716016 10.3510987,0.628131937 9.13050281,1.07892517 C7.207936,1.7900321 5.53754808,2.8976168 4.11070365,4.37627367 C2.49413058,6.05154247 1.35463241,7.98900223 0.75002883,10.245096 C0.21062882,12.2580217 0.0932373566,14.3109956 0.0903588879,16.3784871" id="Shape" fill="#FFFC00" fill-rule="nonzero"></path>
                        <path d="M32.5393369,54.376527 C32.4056758,54.376527 32.2781471,54.3716461 32.1811552,54.3670155 C32.1041875,54.3736485 32.0247167,54.376527 31.9451208,54.376527 C29.137112,54.376527 27.2595995,53.0490523 25.6027278,51.8768898 C24.4151718,51.0380039 23.2951971,50.2460495 21.983116,50.0277865 C21.3387144,49.9209077 20.697692,49.8667174 20.0783206,49.8667174 C18.9623508,49.8667174 18.080413,50.039801 17.4365121,50.1657027 C17.0402846,50.2429208 16.6986228,50.3093758 16.4345546,50.3093758 C16.1579713,50.3093758 15.8219414,50.2480519 15.6818976,49.7698507 C15.5708889,49.3926461 15.4912929,49.0272057 15.4144503,48.6752817 C15.2222187,47.7958469 15.0828007,47.259075 14.7535289,47.2081387 C11.2316598,46.6647338 9.15077724,45.8642692 8.73627774,44.894851 C8.69415647,44.798017 8.66941601,44.6945222 8.66318967,44.5891076 C8.64701265,44.3006848 8.85084496,44.0464475 9.13588429,43.9995221 C11.9327547,43.5389671 14.4196265,42.0606857 16.527792,39.6043506 C18.160885,37.702684 18.9628514,35.8857445 19.0489551,35.6851277 C19.0527864,35.6759021 19.0570035,35.6668416 19.0615954,35.65797 C19.4679601,34.8334764 19.5488075,34.1209929 19.3026358,33.5409188 C18.848839,32.4707542 17.3459029,31.9939296 16.3515796,31.6784244 C16.1042816,31.6002052 15.8703748,31.5261159 15.6840252,31.4521517 C14.802588,31.1039822 13.3529661,30.3683457 13.5460738,29.3529971 C13.6867434,28.6126049 14.6660485,28.0969836 15.4575022,28.0969836 C15.6772671,28.0969836 15.8720017,28.13553 16.0359493,28.2124978 C16.930277,28.6315027 17.7348716,28.8438836 18.4268304,28.8438836 C19.2873674,28.8438836 19.7029933,28.5162388 19.8034894,28.4231266 C19.7774277,27.9531767 19.7491015,27.4833551 19.718512,27.0136781 C19.5165186,23.800431 19.26459,19.8016121 20.2874476,17.5084738 C23.3488868,10.6443271 29.8413356,10.1105588 31.7576449,10.1105588 C32.0739455,10.1079037 32.3902435,10.1049417 32.7065384,10.1016731 C34.628104,10.1016731 41.134069,10.6360671 44.1973855,17.5043438 C45.2202431,19.798984 44.9680642,23.8011819 44.7654451,27.0178081 L44.7559336,27.1717436 C44.7281501,27.6085199 44.7024942,28.0218931 44.6808431,28.422626 C44.7754571,28.5097309 45.1557905,28.8100929 45.9295979,28.8405046 C46.5892679,28.8152241 47.3473064,28.6038444 48.1820623,28.2129984 C48.4401233,28.0918524 48.7258426,28.0666971 48.9198263,28.0666971 C49.2130547,28.0666971 49.5114142,28.1237658 49.7600889,28.2275159 L49.7733549,28.232647 C50.4817085,28.484075 50.9456426,28.9865556 50.9556546,29.5144417 C50.9645404,30.0065347 50.5988497,30.742046 48.8001822,31.452402 C48.6159602,31.525365 48.3809269,31.5999549 48.1326277,31.6786747 C47.1374284,31.9945554 45.6357438,32.4711297 45.181947,33.5406685 C44.9353999,34.1207426 45.0164976,34.8329758 45.4229874,35.6572191 C45.4274929,35.66623 45.4313725,35.675366 45.4357528,35.6848774 C45.5609036,35.9782309 48.5901791,42.8854295 55.3488237,43.9988963 C55.6337581,44.04603 55.8375199,44.300112 55.8216435,44.5884818 C55.8150137,44.6949122 55.7896795,44.7993415 55.7468033,44.8969786 C55.3351822,45.8610153 53.2544248,46.6603535 49.7315545,47.2045093 C49.4009061,47.2555708 49.2616132,47.7899648 49.0711337,48.664769 C48.9922887,49.0260794 48.912067,49.3802562 48.80256,49.7524547 C48.7000615,50.1025015 48.4720367,50.2735827 48.1058454,50.2735827 L48.0506539,50.2735827 C47.8122416,50.2735827 47.4744596,50.2302805 47.0484462,50.1469301 C46.3037989,50.0020054 45.4686675,49.8670929 44.4066377,49.8670929 C43.7873915,49.8670929 43.1464941,49.9214083 42.5013417,50.028162 C41.1906372,50.246425 40.0707877,51.0371278 38.8853592,51.8751377 C37.2252337,53.0489272 35.3470954,54.376527 32.5393369,54.376527" id="Shape" fill="#FFFFFF" fill-rule="nonzero"></path>
                        <path d="M32.7064132,10.6672297 C34.5154682,10.6672297 40.7449752,11.1531903 43.6806378,17.7347464 C44.6473027,19.9019831 44.3995041,23.827839 44.2007646,26.9815144 C44.1697272,27.4819925 44.1389401,27.967077 44.1139099,28.4302602 L44.1033973,28.6293751 L44.2363074,28.7776788 C44.2899971,28.8372506 44.7924776,29.3623834 45.9100744,29.4055605 L45.9280961,29.4065617 L45.9468688,29.4061862 C46.6857592,29.3780273 47.5180121,29.1485007 48.4218513,28.7251155 C48.5550117,28.6627904 48.7322253,28.6323787 48.9197012,28.6323787 C49.1333336,28.6323787 49.3603572,28.6725522 49.5475828,28.7513972 L49.5758669,28.7626607 C50.049813,28.9287359 50.3848418,29.2418632 50.389973,29.5252047 C50.3927263,29.6853977 50.272957,30.2624681 48.5929324,30.9261429 C48.4287346,30.990971 48.2125991,31.0599291 47.9620472,31.1388993 C46.8687297,31.4860676 45.2169892,32.0099489 44.6610693,33.3199025 C44.3480671,34.0577917 44.4337954,34.9285911 44.915626,35.907771 C45.1138649,36.3704536 48.2346256,43.3999245 55.256963,44.557069 C55.2545666,44.5960806 55.244844,44.6342919 55.2283034,44.6697047 C55.109285,44.9500425 54.3527483,45.9185847 49.6450753,46.64496 C48.9084376,46.757846 48.7279701,47.5835911 48.518718,48.5434978 C48.4431269,48.887162 48.3662843,49.23408 48.260657,49.5923868 C48.2283681,49.7006423 48.2223609,49.7067747 48.1063461,49.7067747 L48.0510294,49.7067747 C47.8422778,49.7067747 47.525396,49.6634725 47.1580783,49.5913856 C46.4891472,49.4611036 45.575296,49.301286 44.4070131,49.301286 C43.7549774,49.301286 43.083293,49.3579793 42.4093558,49.4704899 C40.9687448,49.7100286 39.797208,50.5386521 38.5564629,51.415709 C36.8902049,52.5931279 35.1680046,53.8114711 32.5403381,53.8114711 C32.4255748,53.8114711 32.3135648,53.8075914 32.2013045,53.8019596 L32.1717689,53.8007081 L32.1421082,53.8029608 C32.0776555,53.8085926 32.0127022,53.8114711 31.9463723,53.8114711 C29.3190813,53.8114711 27.59613,52.5935033 25.930623,51.415709 C24.6896275,50.5386521 23.517465,49.7100286 22.0771042,49.4704899 C21.4037929,49.3583548 20.7314827,49.301286 20.0798224,49.301286 C18.9117898,49.301286 17.9968122,49.4800014 17.3292578,49.6105337 C16.9619402,49.6823703 16.6439319,49.7439445 16.4358061,49.7439445 C16.2653507,49.7439445 16.2620968,49.7339324 16.2260534,49.610784 C16.1204261,49.2522269 16.043208,48.8970489 15.9679924,48.5538854 C15.7582396,47.5929774 15.577647,46.7627269 14.8413848,46.6497157 C10.1340872,45.9227146 9.37742536,44.9525455 9.25803149,44.6729586 C9.24180005,44.6366306 9.23201736,44.5977539 9.22912165,44.5580702 C16.2513338,43.4019269 19.3714688,36.3722057 19.5703334,35.907771 C20.0530401,34.929342 20.1386433,34.0586678 19.8246399,33.3199025 C19.26872,32.0106998 17.6172298,31.4860676 16.5246632,31.139525 C16.2734855,31.0600542 16.0572249,30.990971 15.8929019,30.9261429 C14.4741923,30.3655924 14.0377914,29.8009119 14.1026195,29.4587496 C14.1778351,29.0641491 14.8619095,28.6629155 15.4588789,28.6629155 C15.5930406,28.6629155 15.7106823,28.6845666 15.7976621,28.7252407 C16.7672055,29.1796633 17.6522721,29.4100659 18.4285826,29.4100659 C19.6489281,29.4100659 20.1920827,28.8422567 20.250403,28.7774285 L20.3826874,28.6295003 L20.3720496,28.4313865 C20.3473948,27.9684537 20.3169832,27.4834943 20.2849446,26.9840174 C20.0868308,23.8295911 19.8390322,19.9063634 20.8053217,17.7390016 C23.7300962,11.1815995 29.9291915,10.6761154 31.7591467,10.6761154 C31.804201,10.6761154 32.5997847,10.6679806 32.5997847,10.6679806 C32.6323239,10.6677303 32.6684925,10.6672297 32.7064132,10.6672297 M32.7064132,9.5361166 L32.7042856,9.5361166 C32.6626104,9.5361166 32.6234382,9.5361166 32.5861433,9.5366172 L31.7560179,9.54487715 C30.683976,9.54487715 28.5390162,9.69630964 26.2349897,10.7132852 C24.9176523,11.2943604 23.7327244,12.0800572 22.7132458,13.0485994 C21.4977811,14.202615 20.5075879,15.6254546 19.7706999,17.2781963 C18.6915244,19.6981124 18.9477081,23.7741493 19.1534561,27.0497215 L19.154207,27.0548527 C19.1762335,27.4056505 19.1993864,27.7719669 19.2205369,28.128897 C19.0622211,28.2016096 18.8055368,28.2783271 18.4272059,28.2783271 C17.8184723,28.2783271 17.0946,28.0837176 16.2762389,27.7002555 C16.0354487,27.5881204 15.7606175,27.531427 15.4573771,27.531427 C14.970165,27.531427 14.456546,27.6748499 14.0110091,27.9367905 C13.4504586,28.2659372 13.0882722,28.7311227 12.9899036,29.2468692 C12.9250755,29.5880304 12.9282043,30.262343 13.6772319,30.946167 C14.0892284,31.3226207 14.6944577,31.669789 15.4756491,31.9785361 C15.6806461,32.0592583 15.9239393,32.1363512 16.1816248,32.2180747 C17.0758274,32.5022922 18.4292083,32.9316847 18.7821336,33.7623106 C18.9609741,34.1834431 18.8840064,34.7376109 18.5539837,35.4074181 C18.5453483,35.4256901 18.5367129,35.4435867 18.5288284,35.4623593 C18.446354,35.6549664 17.6769268,37.3978166 16.0986498,39.2359066 C15.2018191,40.2811662 14.2140037,41.1547189 13.1642387,41.8330363 C11.8829447,42.6611593 10.4965239,43.2025617 9.04389844,43.4418501 C8.47353108,43.5355322 8.06555509,44.0441664 8.09788344,44.6212713 C8.1076452,44.7877219 8.14669226,44.9536719 8.21439885,45.1142404 L8.21602581,45.1171189 C8.44667876,45.656644 8.98144819,46.1149463 9.85087089,46.5191834 C10.9132762,47.0126531 12.5021909,47.4277783 14.5730614,47.7525447 C14.6776875,47.9515345 14.7863184,48.4516371 14.861534,48.7940498 C14.9402539,49.1579883 15.0223528,49.5321893 15.1393689,49.9296683 C15.265646,50.3603122 15.5931657,50.8749324 16.4345546,50.8749324 C16.7534389,50.8749324 17.1201308,50.8030958 17.5447675,50.7207466 C18.1666419,50.5987245 19.0170417,50.4322739 20.0784457,50.4322739 C20.6669049,50.4322739 21.2767648,50.4840864 21.8906295,50.5860843 C23.0739305,50.7830717 24.0940348,51.5036901 25.2743321,52.3381957 C27.0019139,53.5594173 28.9573954,54.9417081 31.9451208,54.9417081 C32.026594,54.9417081 32.1083175,54.9390799 32.1890397,54.9334481 C32.2877837,54.9380787 32.4101812,54.9417081 32.5393369,54.9417081 C35.5279383,54.9417081 37.4829192,53.5589167 39.2086238,52.3386963 L39.2113771,52.3361933 C40.3919247,51.5026889 41.4109026,50.7830717 42.5938281,50.5860843 C43.2074426,50.4842115 43.8171773,50.4322739 44.4058868,50.4322739 C45.4198587,50.4322739 46.2227011,50.5615547 46.939565,50.7013482 C47.4073788,50.7934592 47.7709419,50.8377626 48.049903,50.8377626 L48.0771859,50.8382632 L48.10547,50.8382632 C48.7208366,50.8382632 49.1730064,50.5004811 49.3455894,49.9093938 C49.4602276,49.5203 49.5420762,49.1548596 49.6227985,48.7847886 C49.6931332,48.4639019 49.8055187,47.9495321 49.9101447,47.7484147 C51.9823919,47.4230226 53.5706809,47.0087734 54.6332113,46.5154289 C55.5006316,46.113069 56.0347753,45.6552674 56.2668049,45.1179949 C56.3363888,44.9569258 56.3770628,44.7899746 56.3861988,44.6200198 C56.4186362,44.0428365 56.0105382,43.5341175 55.4400586,43.4405985 C48.9841539,42.3765663 46.0757741,35.7430726 45.9555042,35.4612329 C45.94764,35.4426468 45.939082,35.424362 45.9298482,35.4064169 C45.5998255,34.7363594 45.5236087,34.1828174 45.7025744,33.760934 C46.0547488,32.9310589 47.4072536,32.5016665 48.3020819,32.2175741 C48.5611441,32.1359758 48.8053134,32.0583823 49.0086834,31.9780355 C49.88962,31.6301162 50.5192538,31.2526613 50.9346293,30.8240198 C51.4307271,30.313029 51.5273436,29.823439 51.5213363,29.503053 C51.5061931,28.7278688 50.913604,28.0390387 49.970968,27.7017573 C49.6525844,27.5700986 49.2895219,27.5006399 48.9198263,27.5006399 C48.6681481,27.5006399 48.2954489,27.5351816 47.9426488,27.69988 C47.1873636,28.0533059 46.5107983,28.2465388 45.9299734,28.274072 C45.6211012,28.2584281 45.4044651,28.1914724 45.2641711,28.1275204 C45.2818173,27.825156 45.3013409,27.5145317 45.3214901,27.1906414 L45.3298752,27.0519743 C45.5367495,23.7742744 45.7938093,19.6951088 44.7141332,17.2734405 C43.9741165,15.6148168 42.980419,14.1883478 41.7600734,13.0318291 C40.7365901,12.0626612 39.5476573,11.2770896 38.2255641,10.6963898 C35.9247915,9.68692333 33.7799569,9.5361166 32.7064132,9.5361166" id="Shape" fill="#020202" fill-rule="nonzero"></path>
                        <polygon id="Shape" points="0.0692084003 0.0554418107 65.0692084 0.0554418107 65.0692084 65.0553154 0.0692084003 65.0553154"></polygon>
                    </g>
                </g>
            </g>
        </g>
    </g>
</svg>