<?xml version="1.0" encoding="UTF-8"?>
<svg width="65px" height="53px" viewBox="0 0 65 53" version="1.1" xmlns="http://www.w3.org/2000/svg" xmlns:xlink="http://www.w3.org/1999/xlink">
    <!-- Generator: Sketch 45.1 (43504) - http://www.bohemiancoding.com/sketch -->
    <title>icon-twitter</title>
    <desc>Created with Sketch.</desc>
    <defs></defs>
    <g id="Design" stroke="none" stroke-width="1" fill="none" fill-rule="evenodd">
        <g id="Mobile" transform="translate(-128.000000, -486.000000)" fill-rule="nonzero" fill="#1DA1F2">
            <path d="M148.336758,538.554823 C172.740339,538.554823 186.085708,518.337565 186.085708,500.805873 C186.085708,500.231632 186.074012,499.659994 186.048254,499.090939 C188.638775,497.218204 190.890345,494.88118 192.666255,492.220786 C190.289044,493.277436 187.730856,493.988755 185.047243,494.3095 C187.786407,492.666978 189.889334,490.06871 190.881448,486.971282 C188.318052,488.49094 185.479286,489.595438 182.456723,490.191748 C180.035677,487.612945 176.588883,486 172.772325,486 C165.445608,486 159.504207,491.941619 159.504207,499.265514 C159.504207,500.306626 159.620604,501.319312 159.848235,502.290681 C148.821488,501.735839 139.043781,496.456476 132.499993,488.428857 C131.360581,490.38952 130.703576,492.667043 130.703576,495.097202 C130.703576,499.700161 133.045852,503.763663 136.607655,506.140874 C134.430949,506.073622 132.386178,505.476101 130.598984,504.481535 C130.597031,504.537199 130.597031,504.591468 130.597031,504.650961 C130.597031,511.076268 135.170261,516.440889 141.240993,517.656511 C140.126145,517.960438 138.953185,518.123404 137.742553,518.123404 C136.888971,518.123404 136.057348,518.039391 135.249031,517.884142 C136.938099,523.155671 141.836001,526.991759 147.642864,527.098956 C143.101967,530.658155 137.381686,532.778008 131.164697,532.778008 C130.095114,532.778008 129.038487,532.71717 128,532.594354 C133.871745,536.357965 140.843887,538.553983 148.337475,538.553983" id="icon-twitter"></path>
        </g>
    </g>
</svg>