<?xml version="1.0" encoding="UTF-8"?>
<svg width="66px" height="66px" viewBox="0 0 66 66" version="1.1" xmlns="http://www.w3.org/2000/svg" xmlns:xlink="http://www.w3.org/1999/xlink">
    <!-- Generator: Sketch 45.1 (43504) - http://www.bohemiancoding.com/sketch -->
    <title>icon-lastfm</title>
    <desc>Created with Sketch.</desc>
    <defs></defs>
    <g id="Design" stroke="none" stroke-width="1" fill="none" fill-rule="evenodd">
        <g id="Home" transform="translate(-822.000000, -1378.000000)">
            <g id="Social" transform="translate(330.000000, 1021.626049)">
                <g id="Lastfm" transform="translate(460.000000, 317.533642)">
                    <g id="icon-lastfm" transform="translate(32.853208, 39.652344)">
                        <rect id="rect1942" fill="#B80610" transform="translate(32.225672, 32.225681) scale(-1, 1) translate(-32.225672, -32.225681) " x="0.135465312" y="0.137972361" width="64.1804132" height="64.1754182" rx="10"></rect>
                        <path d="M31.7440345,42.8931877 C29.4874445,45.5153535 26.2938572,46.5758544 22.4781749,46.599532 C13.1062054,46.9150543 8.74909885,38.5390606 8.53061689,32.1642984 C8.59457942,25.9470706 13.7600755,18.2915176 22.1855684,18.119203 C28.2097124,18.2928858 32.4874674,20.1228678 35.9380545,29.1407016 C37.3802304,32.9139088 38.3684338,35.8348285 39.9370054,39.1868433 C42.6029735,44.7044296 45.9516865,46.4691355 49.1053303,46.599532 C52.4792832,46.617502 57.6307365,44.4358831 57.4933704,38.5040957 C57.3173253,33.8358856 52.3605779,32.0952043 49.593006,31.2864789 C46.3132751,30.4559247 43.2964621,29.3293802 42.4729238,24.3614658 C42.2002726,21.8470348 44.2445855,18.1620004 48.5201174,18.119203 C50.3603351,18.1826521 51.7750946,18.1394124 53.2018158,19.4846982" id="path26100" stroke="#FFFFFF" stroke-width="6"></path>
                        <path d="M54.791301,16.8901178 C55.7715341,17.6828859 56.1859722,18.526219 57.5738189,20.3573876 L52.8098101,23.949978 C52.28524,23.0290706 51.9097562,22.212297 50.8283226,21.4017431 L54.791301,16.8901178 Z" id="path26102" fill="#FFFFFF" fill-rule="nonzero"></path>
                        <path d="M33.5672882,45.333021 C34.3596095,44.4285536 35.0208693,43.4931547 35.4882313,42.5119906 L32.3171465,37.1290036 C31.4354748,38.7213705 30.2488353,40.1409871 28.9631126,41.5044798 L33.5672882,45.333021 Z" id="path26104" fill="#FFFFFF" fill-rule="nonzero"></path>
                    </g>
                </g>
            </g>
        </g>
    </g>
</svg>